Coordinates
version=1
nRows=29
nColumns=24
inDegrees=yes

Units are S.I. units (second, meters, Newtons, ...)
Angles are in degrees.

endheader
time	pelvis_tilt	pelvis_list	pelvis_rotation	pelvis_tx	pelvis_ty	pelvis_tz	hip_flexion_r	hip_adduction_r	hip_rotation_r	knee_angle_r	ankle_angle_r	subtalar_angle_r	mtp_angle_r	hip_flexion_l	hip_adduction_l	hip_rotation_l	knee_angle_l	ankle_angle_l	subtalar_angle_l	mtp_angle_l	lumbar_extension	lumbar_bending	lumbar_rotation
      2.42500000	     14.14152813	     -1.02346962	      4.64103226	      1.00705555	      0.91164972	      0.30050590	     11.40907728	      2.38425534	     -4.99536445	    -26.76016363	     11.64729820	      2.02194624	     32.68766489	    -19.32903484	     -2.74508887	     -1.22610645	    -50.64345134	      9.11060617	      7.13010039	     56.54537201	    -28.03524343	      5.68695874	      0.33354432
      2.43000000	     13.82744581	     -1.41808707	      4.82631857	      1.01306018	      0.91139055	      0.30077016	     11.41776678	      2.93252526	     -4.88442126	    -26.82028428	     12.28011797	      1.47026200	     32.38567658	    -17.77325056	     -3.11348198	     -0.78830928	    -52.96400572	      9.01762381	      6.30768317	     53.24428966	    -27.72123606	      6.19662320	      0.43022180
      2.43500000	     13.53340264	     -1.81744503	      5.00259894	      1.01905821	      0.91120715	      0.30114590	     11.35529289	      3.52179567	     -4.66517005	    -26.78089019	     12.84671058	      0.68888955	     32.29617584	    -16.24164430	     -3.46028274	     -0.35512780	    -55.19787005	      9.26123413	      5.25983694	     52.76527060	    -27.43538073	      6.70402197	      0.53852383
      2.44000000	     13.29386682	     -2.12885514	      5.22136598	      1.02499210	      0.91121266	      0.30115834	     11.22645909	      3.96709484	     -4.54820997	    -26.76022162	     13.20408214	     -0.03696181	     32.00667571	    -14.74579177	     -3.68178029	      0.11731206	    -57.33978539	      9.59966329	      4.15987083	     52.32556167	    -27.22141783	      7.17143946	      0.57760774
      2.44500000	     13.00101018	     -2.40858845	      5.36586240	      1.03094456	      0.91128922	      0.30111589	     11.14506081	      4.35309636	     -4.38301935	    -26.75013781	     13.61158011	     -0.26816414	     29.60103554	    -13.26069414	     -3.81489365	      0.52058152	    -59.29086732	     10.04253708	      3.24854663	     50.53635120	    -26.95069666	      7.58636451	      0.70051505
      2.45000000	     12.89777743	     -2.71395746	      5.54257223	      1.03698721	      0.91178551	      0.30112295	     10.78586454	      4.80018602	     -4.20812968	    -26.58178799	     13.57914141	     -0.84629846	     29.12564366	    -12.01110405	     -4.03630419	      0.84648445	    -61.04978638	     10.22920367	      2.16287689	     50.47202728	    -26.88216842	      8.02971582	      0.81601811
      2.45500000	     12.78045857	     -2.92072665	      5.67586075	      1.04296755	      0.91234778	      0.30122510	     10.46830583	      5.10045654	     -4.12956986	    -26.51791769	     14.08880888	     -0.67750616	     26.07781856	    -10.76361165	     -4.13662926	      1.15996970	    -62.67832906	     10.39453444	      1.00219882	     49.83345843	    -26.80378557	      8.34668584	      0.92087705
      2.46000000	     12.63413072	     -3.13256444	      5.88079998	      1.04922804	      0.91305653	      0.30150195	     10.14084239	      5.39343815	     -4.22237808	    -26.37311848	     14.64272130	     -0.74640820	     26.31047216	     -9.47368561	     -4.32177969	      1.45969007	    -64.20947281	     10.49729053	     -0.13150838	     49.75598319	    -26.51978372	      8.69514569	      0.60479294
      2.46500000	     12.40785578	     -3.35068435	      6.02565004	      1.05562284	      0.91365916	      0.30196247	      9.88379579	      5.70236583	     -4.23148228	    -26.19940709	     15.14752411	     -1.04342782	     27.67085870	     -8.09388535	     -4.55140874	      1.61052648	    -65.67509924	     10.67313185	     -1.07302642	     48.80688058	    -25.86733794	      9.06772332	     -0.28039436
      2.47000000	     12.09766590	     -3.52860258	      6.26198415	      1.06231366	      0.91419557	      0.30232534	      9.68417382	      5.92889571	     -4.41689969	    -26.03022380	     15.75036005	     -1.18420394	     27.87097453	     -6.63155790	     -4.75969367	      1.84719659	    -67.03382870	     11.00859477	     -1.81430964	     48.64662400	    -24.77616945	      9.48633917	     -2.07969381
      2.47500000	     11.61004791	     -3.69387053	      6.42833227	      1.06931049	      0.91456741	      0.30285870	      9.62176239	      6.14002142	     -4.54709464	    -25.79696650	     16.20239537	     -1.32436434	     27.95891891	     -5.01773918	     -4.93679933	      2.00211621	    -68.27369645	     11.34081485	     -2.44509069	     48.44313783	    -23.21815669	      9.90434036	     -4.70788390
      2.48000000	     10.97370774	     -3.83215567	      6.58103100	      1.07655166	      0.91476315	      0.30383032	      9.68580624	      6.33684797	     -4.68263806	    -25.53208562	     16.57156097	     -1.42238894	     27.89268080	     -3.27596792	     -5.08263275	      2.19852616	    -69.40467434	     11.69548337	     -2.76615079	     48.20424586	    -21.32580862	     10.28064213	     -8.26471053
      2.48500000	     10.29733240	     -3.82298629	      6.71340414	      1.08379319	      0.91507088	      0.30482097	      9.76553268	      6.37227778	     -4.80234390	    -25.26394572	     16.86390270	     -1.34766360	     27.59230997	     -1.53859907	     -5.04621205	      2.36926302	    -70.36952116	     12.03075259	     -3.11753785	     47.87523523	    -19.39065404	     10.49882968	    -12.60135710
      2.49000000	      9.65367149	     -3.76857497	      6.87475762	      1.09082703	      0.91547511	      0.30575566	      9.78214690	      6.36868622	     -4.91288107	    -24.92730582	     17.13593821	     -1.20229501	     27.12328315	      0.18578194	     -4.94495451	      2.56419215	    -71.26076989	     12.40025452	     -3.48003109	     47.55466587	    -17.63502065	     10.65186422	    -17.17383826
      2.49500000	      9.36061874	     -3.79054909	      7.09231560	      1.09757362	      0.91642698	      0.30672990	      9.28859918	      6.51771881	     -4.96399247	    -24.25022592	     17.24374903	     -1.13164979	     26.87819961	      1.54389268	     -4.99329807	      2.72781892	    -72.01607796	     12.79948352	     -3.77253570	     47.41805286	    -16.51564528	     10.85694091	    -21.28838944
      2.50000000	      9.22778820	     -3.85895699	      7.26697862	      1.10412603	      0.91767900	      0.30747934	      8.46657590	      6.74094011	     -4.83860716	    -23.22710080	     17.26219012	     -1.11568026	     26.73926242	      2.68824283	     -5.07612554	      2.86321441	    -72.63506784	     13.14860464	     -3.80411643	     47.33355898	    -15.90449506	     11.03260337	    -23.87817579
      2.50500000	      9.38890523	     -4.01558688	      7.41908285	      1.11051498	      0.91925878	      0.30793764	      7.20362422	      7.07803015	     -4.68019126	    -21.90674260	     17.19960112	     -1.06001115	     26.56132565	      3.49399989	     -5.28173656	      2.93320374	    -73.15939153	     13.74934043	     -3.48852373	     47.08421754	    -15.91944381	     11.27000631	    -24.85574778
      2.51000000	      9.61322197	     -4.18294963	      7.52343674	      1.11676448	      0.92086332	      0.30805545	      5.87314941	      7.40800311	     -4.48131781	    -20.56610127	     17.09112937	     -1.06967311	     26.49746836	      4.23255465	     -5.45557124	      2.96752742	    -73.61659634	     14.24522102	     -3.29291435	     46.87221483	    -16.17109578	     11.50278989	    -24.68219312
      2.51500000	      9.80273658	     -4.28255952	      7.53552420	      1.12304019	      0.92233555	      0.30823113	      4.69901373	      7.64350791	     -4.31665479	    -19.49821113	     17.12079455	     -1.02823701	     26.47932370	      4.95603775	     -5.53231168	      2.92338605	    -73.96818688	     14.87707295	     -3.02576351	     46.85657089	    -16.40310442	     11.64258989	    -24.51550490
      2.52000000	     10.06115891	     -3.80368700	      7.40323501	      1.12905904	      0.92443655	      0.30780069	      3.64005323	      7.15782046	     -4.39686097	    -18.98139390	     17.33999601	     -0.47052449	     26.54925628	      5.33316291	     -4.55555260	      2.96671875	    -73.97930427	     15.25322348	     -4.09807264	     46.14288496	    -16.80379141	     11.21640522	    -24.40768929
      2.52500000	     10.18127261	     -3.22260977	      7.30991614	      1.13502231	      0.92622881	      0.30726251	      2.91931810	      6.51070313	     -4.76791289	    -18.85622639	     17.82953643	      0.15893564	     26.51089836	      5.84278039	     -3.42889710	      3.10120288	    -73.91952270	     15.72225139	     -4.70966114	     45.29784103	    -17.03390577	     10.67008824	    -24.42905300
      2.53000000	     10.07585202	     -3.09005065	      7.07577761	      1.14109073	      0.92716812	      0.30745197	      2.50776562	      6.39771260	     -4.76745369	    -18.70049500	     18.12856685	      0.41404792	     26.20859459	      6.76594699	     -3.17490639	      2.80725470	    -74.00759687	     16.42071275	     -4.41431430	     43.44384965	    -16.99304485	     10.49661637	    -24.27883853
      2.53500000	     10.16081309	     -2.91840867	      6.88985172	      1.14727719	      0.92839792	      0.30751918	      1.86235773	      6.24877093	     -4.90349028	    -18.52525780	     18.37898387	      0.71180005	     26.24868530	      7.41732748	     -2.90315900	      2.54294149	    -73.91709655	     17.00611051	     -3.98138968	     43.50845712	    -17.14144322	     10.30531630	    -24.14117099
      2.54000000	     10.25490291	     -2.79958881	      6.66194219	      1.15339105	      0.92963070	      0.30775830	      1.24609014	      6.17022254	     -4.89631758	    -18.39646018	     18.60317114	      1.02896616	     26.28394395	      8.05189582	     -2.71302132	      2.24244723	    -73.75570051	     17.62598360	     -3.59852447	     43.54158055	    -17.30467446	     10.15900088	    -23.95563150
      2.54500000	     10.36431993	     -2.70204139	      6.48372618	      1.15966048	      0.93080139	      0.30803292	      0.56144824	      6.12060741	     -4.92861710	    -18.16882194	     18.88037386	      1.36115987	     26.35378988	      8.69452668	     -2.59384991	      1.93413804	    -73.57804283	     18.06137944	     -3.11884575	     43.54171838	    -17.45130262	     10.03280070	    -23.80606246
      2.55000000	     10.48118271	     -2.70765000	      6.30421997	      1.16611355	      0.93190258	      0.30845468	     -0.23049497	      6.19167644	     -4.93586283	    -17.73389238	     19.09417827	      1.72195438	     26.46270975	      9.34054578	     -2.68109763	      1.53157821	    -73.34843091	     18.57623028	     -2.56067063	     43.57753791	    -17.57371769	      9.99472257	    -23.63520748
      2.55500000	     10.60516218	     -2.82213807	      6.12369238	      1.17260584	      0.93276932	      0.30904615	     -1.07994138	      6.39102914	     -4.94335176	    -17.17778350	     19.25485424	      2.04535122	     26.56504754	      9.98150970	     -2.95188756	      1.12977757	    -73.09225882	     19.11619460	     -1.75956906	     43.63215219	    -17.69188311	     10.05830093	    -23.49047934
      2.56000000	     10.63898465	     -3.01474622	      5.79940060	      1.17895667	      0.93341081	      0.30993006	     -1.83309147	      6.67492821	     -4.76634467	    -16.57706796	     19.26960080	      2.12945219	     26.72594011	     10.67105080	     -3.36373730	      0.58201358	    -72.74405406	     19.68814381	     -0.79733591	     43.63965491	    -17.74141925	     10.14724929	    -23.18499885
      2.56500000	     10.68736462	     -3.21942850	      5.47232721	      1.18533802	      0.93395783	      0.31077040	     -2.59390924	      6.94642922	     -4.70176832	    -16.00072064	     19.35204459	      2.47626042	     26.79821191	     11.31586833	     -3.78326635	      0.03519627	    -72.32511599	     20.26033168	     -0.01448212	     43.68522971	    -17.80348058	     10.25011758	    -22.84311030
